<svg id="Layer_1" data-name="Layer 1" xmlns="http://www.w3.org/2000/svg" xmlns:xlink="http://www.w3.org/1999/xlink" viewBox="0 0 673.62 111.1"><defs><style>.cls-1{fill:#1d1d1b;}.cls-2{fill:url(#linear-gradient);}</style><linearGradient id="linear-gradient" x1="21.17" y1="19.55" x2="85.7" y2="83.65" gradientUnits="userSpaceOnUse"><stop offset="0" stop-color="#fdc712"/><stop offset="1" stop-color="#f6b300"/></linearGradient></defs><path class="cls-1" d="M180.44,27.57v9.07H158.18V51h17.06v8.92H158.18V83.61h-10.7v-56Z"/><path class="cls-1" d="M225.71,59.61a14.24,14.24,0,0,1,2.91,8.83,14.8,14.8,0,0,1-2.11,7.91,14.26,14.26,0,0,1-6.08,5.34,21.4,21.4,0,0,1-9.4,1.92H188v-56h22a21.94,21.94,0,0,1,9.37,1.84,13.64,13.64,0,0,1,6,5.14,14,14,0,0,1,2,7.47,12.78,12.78,0,0,1-9.1,12.85A11.93,11.93,0,0,1,225.71,59.61Zm-27-8.92h9.79a8.68,8.68,0,0,0,5.89-1.8,6.53,6.53,0,0,0,2.07-5.18,6.63,6.63,0,0,0-2.07-5.22,8.54,8.54,0,0,0-5.89-1.85h-9.79Zm16.87,21.84a6.9,6.9,0,0,0,2.18-5.46,7.2,7.2,0,0,0-2.3-5.66,9,9,0,0,0-6.19-2H198.71v15.1H209.5A8.86,8.86,0,0,0,215.58,72.53Z"/><path class="cls-1" d="M267.31,83.61l-19.42-25v25H237.18v-56h10.71V52.7l19.42-25.13h12.92l-22,27.78,22.64,28.26Z"/><path class="cls-1" d="M353.27,28.05V83.61h-7V42.18L328.72,83.61h-4.9L306.16,42.1V83.61h-7V28.05h7.49L326.27,74l19.58-45.93Z"/><path class="cls-1" d="M396.55,71.17H373.3L369,83.61h-7.34L381,28h8l19.19,55.64h-7.34Zm-2-5.94L384.93,37l-9.64,28.27Z"/><path class="cls-1" d="M444.65,83.61,432,60.73h-8.42V83.61h-7v-56h17.2A21.86,21.86,0,0,1,444,29.82a14.58,14.58,0,0,1,6.23,5.86,16.93,16.93,0,0,1,2.07,8.43,17,17,0,0,1-3.18,10.2,15.42,15.42,0,0,1-9.52,5.86L453,83.61ZM423.54,54.87h10.25q5.65,0,8.49-2.93a10.8,10.8,0,0,0,2.83-7.83q0-5-2.79-7.71t-8.53-2.73H423.54Z"/><path class="cls-1" d="M492,83.61,470,58.08V83.61h-7v-56h7V53.58l22-25.93h8.8l-24.17,28,24.4,27.94Z"/><path class="cls-1" d="M515.85,33.59V52.3h19.42v6H515.85V77.59h21.71v6H508.89v-56h28.67v6Z"/><path class="cls-1" d="M580.92,27.65v5.94H566.39v50h-7v-50h-14.6V27.65Z"/><path class="cls-1" d="M596.94,82.21a15.87,15.87,0,0,1-6.54-5.46A14.47,14.47,0,0,1,588,68.68h7.42a10.41,10.41,0,0,0,3.09,6.62c1.81,1.8,4.45,2.69,7.92,2.69a11.23,11.23,0,0,0,7.84-2.61,8.65,8.65,0,0,0,2.86-6.7,7.87,7.87,0,0,0-1.68-5.22,10.63,10.63,0,0,0-4.21-3.05,61.89,61.89,0,0,0-6.8-2.25A57.62,57.62,0,0,1,596,55.27a13.09,13.09,0,0,1-7.69-12.85,14.93,14.93,0,0,1,2.22-8.11,14.76,14.76,0,0,1,6.23-5.46,21.14,21.14,0,0,1,9.22-1.92c5,0,9.09,1.31,12.27,3.93a14.73,14.73,0,0,1,5.39,10.44H616a8.77,8.77,0,0,0-3.22-5.66,11,11,0,0,0-7.49-2.45,10.49,10.49,0,0,0-7.11,2.37,8.24,8.24,0,0,0-2.75,6.62,7.38,7.38,0,0,0,1.64,5,10.65,10.65,0,0,0,4.05,2.93,70.69,70.69,0,0,0,6.77,2.29,61.82,61.82,0,0,1,8.49,3,14.23,14.23,0,0,1,5.5,4.58c1.53,2.06,2.3,4.85,2.3,8.39a15.27,15.27,0,0,1-2.07,7.71A15.5,15.5,0,0,1,616,81.93a19.41,19.41,0,0,1-9.56,2.25A21.91,21.91,0,0,1,596.94,82.21Z"/><polygon class="cls-2" points="4.24 2.37 4.18 58.88 16.89 52.84 17.14 15.28 97.69 15.28 97.69 95.82 80 95.82 80 42.34 64.79 49.46 64.79 56.31 71.58 68.9 64.79 68.9 64.79 95.82 61.1 95.82 61.1 68.9 53.83 68.9 61.1 56.31 61.1 51.19 45.89 58.3 45.89 72.38 53.19 85.02 45.89 85.02 45.89 95.82 42.1 95.81 42.1 85.01 35.44 85.02 42.1 72.37 42.05 60.19 27.55 66.89 27.55 95.82 17.14 95.82 16.89 89.4 4.29 95.13 4.24 108.73 110.59 108.73 110.59 2.37 4.24 2.37"/></svg>